<svg xmlns="http://www.w3.org/2000/svg" viewBox="0 0 207.11 204.06"><defs><style>.cls-1,.cls-2{fill:none;stroke:#fff;stroke-miterlimit:10;stroke-width:3px;}.cls-1{stroke-dasharray:7.01 10.51;}.cls-3{fill:#fff;}</style></defs><title>1-VERTICAL</title><g id="Camada_2" data-name="Camada 2"><g id="FESTV_arts_H"><path class="cls-1" d="M53.56,52h-32a20,20,0,0,0-20,20V132a20,20,0,0,0,20,20h32Z"/><path class="cls-1" d="M185.58,52h-32V152h32a20,20,0,0,0,20-20V72.06A20,20,0,0,0,185.58,52Z"/><rect class="cls-2" x="53.56" y="1.5" width="99.99" height="201.06" rx="29.09"/><path class="cls-2" d="M15.16,99.53A93.87,93.87,0,0,1,38,38"/><polygon class="cls-3" points="42.31 45.38 46.13 29.69 30.63 34.23 42.31 45.38"/><path class="cls-2" d="M192.59,114a93.82,93.82,0,0,1-18.87,56.59"/><polygon class="cls-3" points="168.96 163.53 166.17 179.44 181.34 173.9 168.96 163.53"/><path class="cls-2" d="M133.58,16.19H118.42a2.72,2.72,0,0,0-2.72,2.72h0a4.87,4.87,0,0,1-4.87,4.87H96.58a4.87,4.87,0,0,1-4.87-4.87h0A2.72,2.72,0,0,0,89,16.19H73.83A12.35,12.35,0,0,0,61.48,28.54v147a12.35,12.35,0,0,0,12.35,12.35h59.75a12.35,12.35,0,0,0,12.35-12.35v-147A12.35,12.35,0,0,0,133.58,16.19Z"/></g></g></svg>