<svg xmlns="http://www.w3.org/2000/svg" viewBox="0 0 168.94 138.53"><defs><style>.cls-1{fill:none;stroke:#fff;stroke-miterlimit:10;stroke-width:3px;}</style></defs><title>2-PEOPLE</title><g id="Camada_2" data-name="Camada 2"><g id="FESTV_arts_H"><circle class="cls-1" cx="29.33" cy="20.76" r="19.26"/><circle class="cls-1" cx="100.57" cy="20.76" r="19.26"/><path class="cls-1" d="M81,85.36a19.24,19.24,0,0,1-31.39,1.12,29,29,0,0,0-12.53,23.91v24a175.92,175.92,0,0,0,59,.28s-.84-21.46-.84-24.28A29.08,29.08,0,0,0,81,85.36Z"/><path class="cls-1" d="M152.29,85.36a19.25,19.25,0,0,1-31.4,1.12,29,29,0,0,0-12.53,23.91v24a175.92,175.92,0,0,0,59,.28s-.84-21.46-.84-24.28A29.07,29.07,0,0,0,152.29,85.36Z"/><path class="cls-1" d="M84.21,74.79a19,19,0,0,1-.84,5.63,75.22,75.22,0,0,0,34.45.16,19.47,19.47,0,0,1-.88-5.79,19.26,19.26,0,0,1,14-18.53,29.09,29.09,0,0,0-14.26-24.93,19.25,19.25,0,0,1-31.4,1.12A29.05,29.05,0,0,0,72.74,56.37v.8A19.26,19.26,0,0,1,84.21,74.79Z"/><path class="cls-1" d="M45.69,74.79a19.27,19.27,0,0,1,14-18.53A29.08,29.08,0,0,0,45.42,31.33,19.24,19.24,0,0,1,14,32.45,29.05,29.05,0,0,0,1.5,56.37v24c21.73,2.91,36.15,2.72,45.08.21A19.47,19.47,0,0,1,45.69,74.79Z"/><circle class="cls-1" cx="64.95" cy="74.79" r="19.26"/><circle class="cls-1" cx="136.19" cy="74.79" r="19.26"/></g></g></svg>