<svg xmlns="http://www.w3.org/2000/svg" viewBox="0 0 2025.24 2070.37"><defs><style>.cls-1,.cls-10,.cls-11,.cls-12,.cls-13,.cls-14,.cls-15,.cls-16,.cls-17,.cls-18,.cls-19,.cls-2,.cls-20,.cls-21,.cls-22,.cls-23,.cls-24,.cls-25,.cls-26,.cls-27,.cls-28,.cls-29,.cls-3,.cls-30,.cls-31,.cls-32,.cls-4,.cls-5,.cls-6,.cls-7,.cls-8,.cls-9{fill:none;stroke:#bfc0c6;stroke-miterlimit:10;stroke-width:8.63px;}.cls-2{stroke-dasharray:17.56 17.56;}.cls-3{stroke-dasharray:16.2 16.2;}.cls-4{stroke-dasharray:17.68 17.68;}.cls-5{stroke-dasharray:16.36 16.36;}.cls-6{stroke-dasharray:16.74 16.74;}.cls-7{stroke-dasharray:16.93 16.93;}.cls-8{stroke-dasharray:17.29 17.29;}.cls-9{stroke-dasharray:17.1 17.1;}.cls-10{stroke-dasharray:17.98 17.98;}.cls-11{stroke-dasharray:17.53 17.53;}.cls-12{stroke-dasharray:17.69 17.69;}.cls-13{stroke-dasharray:17.33 17.33;}.cls-14{stroke-dasharray:16.52 16.52;}.cls-15{stroke-dasharray:17.55 17.55;}.cls-16{stroke-dasharray:17.7 17.7;}.cls-17{stroke-dasharray:15.86 15.86;}.cls-18{stroke-dasharray:16.68 16.68;}.cls-19{stroke-dasharray:16.35 16.35;}.cls-20{stroke-dasharray:15.69 15.69;}.cls-21{stroke-dasharray:17.41 17.41;}.cls-22{stroke-dasharray:17.52 17.52;}.cls-23{stroke-dasharray:16.52 16.52;}.cls-24{stroke-dasharray:16.75 16.75;}.cls-25{stroke-dasharray:16.85 16.85;}.cls-26{stroke-dasharray:17 17;}.cls-27{stroke-dasharray:17.45 17.45;}.cls-28{stroke-dasharray:16.91 16.91;}.cls-29{stroke-dasharray:16.63 16.63;}.cls-30{stroke-dasharray:17.85 17.85;}.cls-31{stroke-dasharray:16.83 16.83;}.cls-32{stroke-dasharray:17.75 17.75;}.cls-33{fill:#bfc0c6;}</style></defs><title>Ativo 4</title><g id="Camada_2" data-name="Camada 2"><g id="teia"><line class="cls-1" x1="681.3" y1="376.33" x2="676.96" y2="383.79"/><line class="cls-2" x1="668.13" y1="398.96" x2="407.7" y2="846.65"/><line class="cls-1" x1="403.28" y1="854.24" x2="398.94" y2="861.7"/><line class="cls-1" x1="373.63" y1="1088.18" x2="374.59" y2="1079.6"/><line class="cls-3" x1="376.39" y1="1063.5" x2="397.08" y2="878.33"/><line class="cls-1" x1="397.98" y1="870.28" x2="398.94" y2="861.7"/><line class="cls-1" x1="681.3" y1="376.33" x2="688.98" y2="380.27"/><line class="cls-4" x1="704.7" y1="388.34" x2="979.9" y2="529.67"/><line class="cls-1" x1="987.76" y1="533.71" x2="995.44" y2="537.65"/><line class="cls-1" x1="373.63" y1="1088.18" x2="365.83" y2="1084.48"/><line class="cls-5" x1="351.04" y1="1077.47" x2="151.44" y2="982.82"/><line class="cls-1" x1="144.04" y1="979.32" x2="136.25" y2="975.62"/><line class="cls-1" x1="373.63" y1="1088.18" x2="366.71" y2="1093.34"/><line class="cls-6" x1="353.3" y1="1103.35" x2="145.38" y2="1258.48"/><line class="cls-1" x1="138.67" y1="1263.49" x2="131.76" y2="1268.65"/><line class="cls-1" x1="827.44" y1="189.26" x2="822.13" y2="196.06"/><line class="cls-7" x1="811.7" y1="209.41" x2="691.82" y2="362.85"/><line class="cls-1" x1="686.61" y1="369.52" x2="681.3" y2="376.33"/><line class="cls-1" x1="398.94" y1="862.7" x2="392.35" y2="857.13"/><line class="cls-8" x1="379.15" y1="845.96" x2="15.98" y2="538.89"/><line class="cls-1" x1="9.38" y1="533.3" x2="2.79" y2="527.73"/><line class="cls-1" x1="12.93" y1="230.97" x2="21.36" y2="232.8"/><line class="cls-9" x1="38.06" y1="236.44" x2="664.51" y2="372.68"/><line class="cls-1" x1="672.87" y1="374.49" x2="681.3" y2="376.33"/><line class="cls-1" x1="827.44" y1="189.26" x2="821.66" y2="182.85"/><line class="cls-10" x1="809.62" y1="169.5" x2="671.18" y2="15.97"/><line class="cls-1" x1="665.16" y1="9.3" x2="659.38" y2="2.89"/><line class="cls-1" x1="995.44" y1="537.65" x2="1003.15" y2="541.51"/><line class="cls-11" x1="1018.84" y1="549.35" x2="1512.79" y2="796.32"/><line class="cls-1" x1="1520.63" y1="800.24" x2="1528.35" y2="804.1"/><line class="cls-1" x1="1705.1" y1="687.39" x2="1697.9" y2="692.15"/><line class="cls-12" x1="1683.14" y1="701.89" x2="1542.93" y2="794.47"/><line class="cls-1" x1="1535.55" y1="799.34" x2="1528.35" y2="804.1"/><line class="cls-1" x1="1705.1" y1="687.39" x2="1710.36" y2="680.55"/><line class="cls-13" x1="1720.92" y1="666.8" x2="2011.28" y2="288.81"/><line class="cls-1" x1="2016.56" y1="281.94" x2="2021.81" y2="275.09"/><line class="cls-1" x1="1705.1" y1="687.39" x2="1707.84" y2="695.58"/><line class="cls-14" x1="1713.07" y1="711.25" x2="1815.18" y2="1016.88"/><line class="cls-1" x1="1817.8" y1="1024.71" x2="1820.53" y2="1032.9"/><line class="cls-1" x1="1705.1" y1="687.39" x2="1713.49" y2="689.4"/><line class="cls-15" x1="1730.56" y1="693.49" x2="1960.96" y2="748.62"/><line class="cls-1" x1="1969.49" y1="750.66" x2="1977.89" y2="752.67"/><line class="cls-1" x1="1528.35" y1="804.1" x2="1526.51" y2="812.53"/><line class="cls-16" x1="1522.76" y1="829.83" x2="1389.39" y2="1443.92"/><line class="cls-1" x1="1387.51" y1="1452.57" x2="1385.68" y2="1461"/><line class="cls-1" x1="981.88" y1="726.98" x2="989.5" y2="731.02"/><line class="cls-17" x1="1003.52" y1="738.45" x2="1136.66" y2="809.02"/><line class="cls-1" x1="1143.66" y1="812.74" x2="1151.29" y2="816.78"/><line class="cls-1" x1="1528.35" y1="804.1" x2="1519.72" y2="804.43"/><line class="cls-18" x1="1503.06" y1="805.05" x2="1178.12" y2="817.3"/><line class="cls-1" x1="1169.78" y1="817.61" x2="1161.16" y2="817.94"/><line class="cls-1" x1="1280.76" y1="1014.21" x2="1276.27" y2="1006.84"/><line class="cls-19" x1="1267.76" y1="992.88" x2="1169.91" y2="832.29"/><line class="cls-1" x1="1165.65" y1="825.31" x2="1161.16" y2="817.94"/><line class="cls-1" x1="981.88" y1="726.98" x2="982.49" y2="718.37"/><line class="cls-20" x1="983.61" y1="702.72" x2="994.26" y2="554.08"/><line class="cls-1" x1="994.82" y1="546.26" x2="995.44" y2="537.65"/><line class="cls-1" x1="981.88" y1="726.98" x2="975.5" y2="732.79"/><line class="cls-21" x1="962.63" y1="744.52" x2="660.24" y2="1020.22"/><line class="cls-1" x1="653.81" y1="1026.08" x2="647.43" y2="1031.9"/><line class="cls-1" x1="1213.71" y1="282.79" x2="1222.13" y2="284.71"/><line class="cls-22" x1="1239.21" y1="288.59" x2="1879.68" y2="434.2"/><line class="cls-1" x1="1888.22" y1="436.14" x2="1896.64" y2="438.05"/><line class="cls-1" x1="1213.71" y1="282.79" x2="1205.32" y2="280.78"/><line class="cls-23" x1="1189.25" y1="276.93" x2="843.86" y2="194.2"/><line class="cls-1" x1="835.83" y1="192.27" x2="827.44" y2="190.26"/><line class="cls-1" x1="681.3" y1="376.33" x2="688.98" y2="380.27"/><line class="cls-4" x1="704.7" y1="388.34" x2="979.9" y2="529.67"/><line class="cls-1" x1="987.76" y1="533.71" x2="995.44" y2="537.65"/><line class="cls-1" x1="1213.71" y1="282.79" x2="1208.1" y2="289.35"/><line class="cls-24" x1="1197.2" y1="302.07" x2="1006.5" y2="524.73"/><line class="cls-1" x1="1001.05" y1="531.09" x2="995.44" y2="537.65"/><line class="cls-1" x1="864.01" y1="2056.37" x2="865.5" y2="2047.87"/><line class="cls-11" x1="868.54" y1="2030.6" x2="964.08" y2="1486.68"/><line class="cls-1" x1="965.6" y1="1478.05" x2="967.09" y2="1469.55"/><line class="cls-1" x1="804.75" y1="1333.5" x2="811.36" y2="1339.05"/><line class="cls-12" x1="824.92" y1="1350.41" x2="953.7" y2="1458.32"/><line class="cls-1" x1="960.48" y1="1464" x2="967.09" y2="1469.55"/><line class="cls-1" x1="804.75" y1="1333.5" x2="811.91" y2="1328.7"/><line class="cls-25" x1="825.9" y1="1319.31" x2="1266.6" y2="1023.71"/><line class="cls-1" x1="1273.59" y1="1019.02" x2="1280.76" y2="1014.21"/><line class="cls-1" x1="804.75" y1="1333.5" x2="800.75" y2="1325.85"/><line class="cls-26" x1="792.89" y1="1310.78" x2="655.35" y2="1047.09"/><line class="cls-1" x1="651.42" y1="1039.55" x2="647.43" y2="1031.9"/><line class="cls-1" x1="967.09" y1="1469.55" x2="975.72" y2="1469.37"/><line class="cls-27" x1="993.17" y1="1469.01" x2="1368.33" y2="1461.35"/><line class="cls-1" x1="1377.05" y1="1461.18" x2="1385.68" y2="1461"/><line class="cls-1" x1="1049.32" y1="2015.27" x2="1051.01" y2="2006.81"/><line class="cls-17" x1="1054.13" y1="1991.25" x2="1083.72" y2="1843.5"/><line class="cls-1" x1="1085.28" y1="1835.72" x2="1086.97" y2="1827.26"/><line class="cls-1" x1="967.09" y1="1469.55" x2="969.87" y2="1477.72"/><line class="cls-18" x1="975.23" y1="1493.51" x2="1079.81" y2="1801.4"/><line class="cls-1" x1="1082.49" y1="1809.3" x2="1085.26" y2="1817.47"/><line class="cls-1" x1="1690.28" y1="1889.21" x2="1681.71" y2="1888.19"/><line class="cls-28" x1="1664.91" y1="1886.2" x2="1102.23" y2="1819.48"/><line class="cls-1" x1="1093.83" y1="1818.49" x2="1085.26" y2="1817.47"/><line class="cls-1" x1="1385.68" y1="1461" x2="1380.12" y2="1467.6"/><line class="cls-29" x1="1369.41" y1="1480.31" x2="1096.18" y2="1804.51"/><line class="cls-1" x1="1090.83" y1="1810.87" x2="1085.26" y2="1817.47"/><line class="cls-1" x1="1049.32" y1="2015.27" x2="1040.89" y2="2017.14"/><line class="cls-20" x1="1025.58" y1="2020.54" x2="880.09" y2="2052.8"/><line class="cls-1" x1="872.44" y1="2054.5" x2="864.01" y2="2056.37"/><line class="cls-1" x1="653.03" y1="1031.9" x2="644.57" y2="1033.6"/><line class="cls-30" x1="627.07" y1="1037.13" x2="390.84" y2="1084.71"/><line class="cls-1" x1="382.09" y1="1086.47" x2="373.63" y2="1088.18"/><line class="cls-1" x1="373.63" y1="1645.04" x2="380.24" y2="1650.59"/><line class="cls-31" x1="393.14" y1="1661.41" x2="850.95" y2="2045.42"/><line class="cls-1" x1="857.4" y1="2050.82" x2="864.01" y2="2056.37"/><line class="cls-1" x1="804.75" y1="1333.5" x2="797.75" y2="1338.56"/><line class="cls-32" x1="783.37" y1="1348.95" x2="387.81" y2="1634.79"/><line class="cls-1" x1="380.62" y1="1639.99" x2="373.63" y2="1645.04"/><circle class="cls-33" cx="1161.16" cy="816.94" r="14" transform="translate(-253.84 932.91) rotate(-39.81)"/><circle class="cls-33" cx="1527.42" cy="802.94" r="14" transform="matrix(0.77, -0.64, 0.64, 0.77, -159.95, 1164.18)"/><circle class="cls-33" cx="981.43" cy="729.76" r="14" transform="translate(-239.69 797.62) rotate(-39.81)"/><circle class="cls-33" cx="1705" cy="687.96" r="14" transform="translate(-45.15 1251.22) rotate(-39.81)"/><circle class="cls-33" cx="827.44" cy="189.26" r="14" transform="translate(70.68 573.69) rotate(-39.81)"/><circle class="cls-33" cx="681.3" cy="376.33" r="14" transform="translate(-82.99 523.49) rotate(-39.81)"/><circle class="cls-33" cx="396.92" cy="859.15" r="14" transform="translate(-458.07 453.36) rotate(-39.81)"/><circle class="cls-33" cx="373.63" cy="1088.18" r="14" transform="translate(-610.12 491.55) rotate(-39.81)"/><circle class="cls-33" cx="995.43" cy="537.65" r="14" transform="translate(-113.44 762.04) rotate(-39.81)"/><circle class="cls-33" cx="1213.71" cy="282.79" r="14" transform="translate(100.35 842.7) rotate(-39.81)"/><circle class="cls-33" cx="681.3" cy="376.33" r="14" transform="translate(-82.99 523.49) rotate(-39.81)"/><circle class="cls-33" cx="995.43" cy="537.65" r="14" transform="translate(-113.44 762.04) rotate(-39.81)"/><circle class="cls-33" cx="1084.31" cy="1817.76" r="14" transform="translate(-1029.82 1715.54) rotate(-56.42)"/><circle class="cls-33" cx="966.24" cy="1470.76" r="14" transform="translate(-793.5 1462.14) rotate(-56.42)"/><circle class="cls-33" cx="1052.11" cy="2014.9" r="14" transform="translate(-1208.44 1776.81) rotate(-56.42)"/><circle class="cls-33" cx="805.31" cy="1333.44" r="14" transform="translate(-751.01 1266.71) rotate(-56.42)"/><circle class="cls-33" cx="864.01" cy="2056.37" r="14" transform="translate(-1327.04 1638.64) rotate(-56.42)"/><circle class="cls-33" cx="373.63" cy="1645.04" r="14" transform="translate(-1203.49 1046.32) rotate(-56.42)"/><circle class="cls-33" cx="864.01" cy="2056.37" r="14" transform="translate(-1327.04 1638.64) rotate(-56.42)"/><circle class="cls-33" cx="1285.27" cy="1015.68" r="14" transform="translate(-352.32 1058.46) rotate(-39.81)"/><circle class="cls-33" cx="653.03" cy="1031.9" r="14" transform="translate(-509.3 657.4) rotate(-39.81)"/><circle class="cls-33" cx="1385.68" cy="1461" r="14" transform="translate(-614.17 1226.01) rotate(-39.81)"/></g></g></svg>