<svg xmlns="http://www.w3.org/2000/svg" viewBox="0 0 571.66 306.2"><defs><style>.cls-1{fill:#211915;}</style></defs><title>logo-festival</title><g id="Camada_2" data-name="Camada 2"><g id="TESTES_TEXTO" data-name="TESTES TEXTO"><path class="cls-1" d="M1.83,257.5c0-11,8.37-19,19.66-19,5.72,0,10.7,2,14.09,5.77l-3.44,3.34a13.75,13.75,0,0,0-10.44-4.4c-8.37,0-14.57,6-14.57,14.26s6.2,14.25,14.57,14.25a13.79,13.79,0,0,0,10.44-4.45l3.44,3.34c-3.39,3.82-8.37,5.83-14.14,5.83C10.2,276.47,1.83,268.47,1.83,257.5Z"/><path class="cls-1" d="M68.23,266.77H48.52l-4.08,9.28H39L55.78,239H61l16.85,37.1H72.31Zm-1.85-4.24-8-18.18-8,18.18Z"/><path class="cls-1" d="M120.12,276.05l-.05-27-13.41,22.52h-2.44L90.81,249.18v26.87H85.73V239h4.34L105.55,265,120.81,239h4.34l.06,37.1Z"/><path class="cls-1" d="M168.61,251.88c0,8.05-5.83,12.93-15.47,12.93H144v11.24h-5.3V239h14.47C162.78,239,168.61,243.83,168.61,251.88Zm-5.3,0c0-5.3-3.55-8.32-10.33-8.32h-9V260.2h9C159.76,260.2,163.31,257.18,163.31,251.88Z"/><path class="cls-1" d="M227.76,239v37.1h-4.34l-22.26-27.67v27.67h-5.3V239h4.34l22.26,27.66V239Z"/><path class="cls-1" d="M264.86,266.77H245.15l-4.08,9.28h-5.46l16.8-37.1h5.24l16.86,37.1h-5.57ZM263,262.53l-8-18.18-8,18.18Z"/><path class="cls-1" d="M279,271.81l2-4.14a19.13,19.13,0,0,0,12.25,4.3c6.41,0,9.16-2.5,9.16-5.73,0-9.06-22.47-3.34-22.47-17.12,0-5.72,4.46-10.59,14.21-10.59A21.81,21.81,0,0,1,306,241.81l-1.75,4.24a19.12,19.12,0,0,0-10.17-3c-6.31,0-9,2.65-9,5.88,0,9.06,22.47,3.39,22.47,17,0,5.67-4.56,10.55-14.36,10.55C287.5,276.47,281.93,274.56,279,271.81Z"/><polygon class="cls-1" points="177.93 0.86 177.93 0.89 143.76 41.61 148.07 45.22 177.93 9.63 177.93 306.2 183.55 306.2 183.55 0.86 177.93 0.86"/><path class="cls-1" d="M331.44,185.8h10c8,0,13.39,5.26,13.39,12.6S349.4,211,341.41,211h-10Zm9.83,23.54c7.12,0,11.69-4.53,11.69-10.94s-4.57-10.94-11.69-10.94h-8v21.88Z"/><path class="cls-1" d="M380.14,209.34V211H362.76V185.8H379.6v1.66h-15v9.93H378V199H364.59v10.33Z"/><rect class="cls-1" x="207.61" y="18.76" width="5.62" height="42.53" transform="translate(170.4 250.45) rotate(-90)"/><path class="cls-1" d="M210.42,10.14a9.45,9.45,0,1,0,9.45,9.44A9.44,9.44,0,0,0,210.42,10.14Zm0,13.28a3.84,3.84,0,1,1,3.84-3.84A3.84,3.84,0,0,1,210.42,23.42Z"/><path class="cls-1" d="M52.85,130.49h10c8,0,13.39,5.26,13.39,12.6s-5.4,12.6-13.39,12.6h-10ZM62.68,154c7.12,0,11.7-4.54,11.7-10.95s-4.58-10.94-11.7-10.94h-8V154Z"/><path class="cls-1" d="M101.56,154v1.65H84.17v-25.2H101v1.66H86v9.93H99.43v1.62H86V154Z"/><path class="cls-1" d="M36.05,75.88V88.81h18.6v4.56H36.05v15h-5.3V71.27H56.93v4.61Z"/><path class="cls-1" d="M95,103.75v4.61H68.12V71.27H94.3v4.61H73.42V87.27H92v4.51H73.42v12Z"/><path class="cls-1" d="M103.94,104.12l2-4.13a19.08,19.08,0,0,0,12.24,4.29c6.41,0,9.16-2.49,9.16-5.72,0-9.06-22.46-3.34-22.46-17.12,0-5.72,4.45-10.6,14.2-10.6A21.82,21.82,0,0,1,131,74.13l-1.75,4.24a19.12,19.12,0,0,0-10.17-3c-6.31,0-9,2.65-9,5.88,0,9.06,22.47,3.39,22.47,17,0,5.67-4.56,10.55-14.36,10.55C112.48,108.79,106.91,106.88,103.94,104.12Z"/><path class="cls-1" d="M150.79,75.88H138.08V71.27h30.68v4.61H156v32.48h-5.25Z"/><path class="cls-1" d="M228.44,71.27l-16.27,37.09h-5.25L190.6,71.27h5.72l13.36,30.47,13.46-30.47Z"/><path class="cls-1" d="M259.34,99.09H239.62l-4.08,9.27h-5.46l16.8-37.09h5.25L269,108.36h-5.56Zm-1.86-4.24-8-18.18-8,18.18Z"/><path class="cls-1" d="M278.21,71.27h5.3v32.48h20.08v4.61H278.21Z"/><path class="cls-1" d="M169.43,124l-18.18,42h-9.6l-18.12-42H134l12.78,30,13-30Z"/><path class="cls-1" d="M193.55,124h19.08c13.74,0,23.16,8.28,23.16,21s-9.42,21-23.16,21H193.55Zm18.6,34c8.34,0,13.8-5,13.8-13s-5.46-13-13.8-13h-8.88v26Z"/><path class="cls-1" d="M277,158.18V166H244.49V124h31.74v7.8H254.15v9.12h19.5v7.56h-19.5v9.72Z"/><path class="cls-1" d="M283.37,145c0-12.48,9.72-21.72,23-21.72s23,9.18,23,21.72-9.78,21.72-23,21.72S283.37,157.46,283.37,145Zm36.11,0c0-8-5.63-13.44-13.13-13.44S293.21,137,293.21,145s5.64,13.44,13.14,13.44S319.48,153,319.48,145Z"/><path class="cls-1" d="M338,124h19.08c13.74,0,23.15,8.28,23.15,21s-9.41,21-23.15,21H338Zm18.6,34c8.34,0,13.8-5,13.8-13s-5.46-13-13.8-13h-8.88v26Z"/><path class="cls-1" d="M416,157h-19.5l-3.72,9h-10l18.72-42h9.6l18.77,42H419.75ZM413,149.6l-6.66-16.08-6.66,16.08Z"/><path class="cls-1" d="M474.22,124v42h-8l-20.94-25.5V166h-9.6V124h8l20.87,25.5V124Z"/><path class="cls-1" d="M516.76,153.44,523,159.2c-3.78,4.68-9.54,7.26-16.44,7.5L506,169c3.66.42,5.23,2.52,5.23,5,0,3.66-3.49,5.93-8.83,5.93a12,12,0,0,1-5.57-1.25l1.44-4a9,9,0,0,0,3.89.89c2.23,0,3.12-.77,3.12-1.91s-.84-1.74-2.93-1.74h-2l1.32-5.46c-10.92-1.68-18.72-10.08-18.72-21.42,0-12.66,9.72-21.72,22.79-21.72,7.26,0,13.32,2.64,17.28,7.44l-6.24,5.76a13.51,13.51,0,0,0-10.55-4.92c-7.87,0-13.44,5.52-13.44,13.44s5.57,13.44,13.44,13.44A13.38,13.38,0,0,0,516.76,153.44Z"/><path class="cls-1" d="M557.74,157H538.25l-3.72,9h-10l18.72-42h9.59l18.78,42h-10.2Zm-3.06-7.38L548,133.52l-6.65,16.08Z"/><path class="cls-1" d="M45.9,176.85l-18.18,42h-9.6L0,176.85H10.5l12.78,30,13-30Z"/><path class="cls-1" d="M83.46,211.05v7.8H50.94v-42H82.68v7.8H60.6v9.12H80.1v7.56H60.6v9.72Z"/><path class="cls-1" d="M119.52,218.85l-8.1-11.7h-8.94v11.7H92.76v-42h18.18c11.22,0,18.24,5.82,18.24,15.24a13.65,13.65,0,0,1-8.64,13.26l9.42,13.5Zm-9.12-34.08h-7.92v14.64h7.92c5.94,0,8.94-2.76,8.94-7.32S116.34,184.77,110.4,184.77Z"/><path class="cls-1" d="M146.52,184.77H133.08v-7.92h36.6v7.92H156.24v34.08h-9.72Z"/><path class="cls-1" d="M192.36,197.85c0-12.66,9.72-21.72,22.79-21.72,7.26,0,13.32,2.64,17.28,7.44l-6.24,5.76a13.51,13.51,0,0,0-10.56-4.92c-7.85,0-13.43,5.52-13.43,13.44s5.58,13.44,13.43,13.44a13.38,13.38,0,0,0,10.56-5l6.24,5.76c-4,4.86-10,7.5-17.34,7.5C202.08,219.57,192.36,210.51,192.36,197.85Z"/><path class="cls-1" d="M267.36,209.85h-19.5l-3.72,9h-10l18.72-42h9.6l18.78,42h-10.2Zm-3.06-7.38-6.66-16.08L251,202.47Z"/><path class="cls-1" d="M287.21,176.85h9.72v34.08H318v7.92H287.21Z"/><polygon class="cls-1" points="177.96 0 143.77 40.74 148.07 44.36 177.96 8.74 177.96 305.34 183.58 305.34 183.58 0 177.96 0"/><rect class="cls-1" x="207.64" y="18.47" width="5.62" height="42.53" transform="translate(170.72 250.18) rotate(-90)"/><path class="cls-1" d="M210.45,9.85a9.44,9.44,0,1,0,9.45,9.44A9.43,9.43,0,0,0,210.45,9.85Zm0,13.28a3.84,3.84,0,1,1,3.84-3.84A3.84,3.84,0,0,1,210.45,23.13Z"/></g></g></svg>