<svg xmlns="http://www.w3.org/2000/svg" viewBox="0 0 841.89 393.27"><defs><style>.cls-1,.cls-5{font-size:53px;font-family:Montserrat-Medium, Montserrat;font-weight:500;}.cls-1,.cls-13,.cls-3,.cls-4,.cls-5,.cls-8{fill:#211915;}.cls-1{letter-spacing:0.03em;}.cls-2{letter-spacing:0.04em;}.cls-4{font-size:36px;font-family:Montserrat-Light, Montserrat;font-weight:300;letter-spacing:0.04em;}.cls-5{letter-spacing:0.07em;}.cls-6{letter-spacing:0.06em;}.cls-7{letter-spacing:0.03em;}.cls-13,.cls-8{font-size:60px;font-family:Montserrat-Bold, Montserrat;font-weight:700;}.cls-8{letter-spacing:0.02em;}.cls-9{letter-spacing:0.02em;}.cls-10{letter-spacing:0.02em;}.cls-11{letter-spacing:0.01em;}.cls-12{letter-spacing:0.01em;}.cls-13{letter-spacing:0.01em;}.cls-14{letter-spacing:0.03em;}.cls-15{letter-spacing:0.02em;}.cls-16{letter-spacing:0.01em;}.cls-17{letter-spacing:0.03em;}</style></defs><title>FEST-VERT_LOGO</title><g id="TESTES_TEXTO" data-name="TESTES TEXTO"><text class="cls-1" transform="translate(238.68 318.89)">C<tspan class="cls-2" x="39.75" y="0">AMP NAS</tspan></text><polygon class="cls-3" points="418.32 43.7 418.32 43.73 384.16 84.45 388.46 88.06 418.32 52.47 418.32 349.04 423.94 349.04 423.94 43.7 418.32 43.7"/><text class="cls-4" transform="translate(567.44 253.84)">DE</text><rect class="cls-3" x="448.01" y="61.6" width="5.62" height="42.53" transform="translate(367.95 533.68) rotate(-90)"/><path class="cls-3" d="M450.82,53a9.45,9.45,0,1,0,9.44,9.45A9.45,9.45,0,0,0,450.82,53Zm0,13.28a3.84,3.84,0,1,1,3.83-3.83A3.84,3.84,0,0,1,450.82,66.26Z"/><text class="cls-4" transform="translate(288.85 198.53)">DE</text><text class="cls-5" transform="translate(265.58 151.2)">FE<tspan class="cls-6" x="76.58" y="0">S</tspan><tspan x="112.68" y="0">T </tspan><tspan class="cls-7" x="165.46" y="0">V</tspan><tspan x="204.95" y="0">AL</tspan></text><text class="cls-8" transform="translate(364.46 208.82)">V D<tspan class="cls-9" x="115.44" y="0">E</tspan><tspan class="cls-10" x="156.96" y="0">O</tspan><tspan class="cls-11" x="208.98" y="0">D</tspan><tspan x="259.32" y="0">AN</tspan><tspan class="cls-12" x="356.52" y="0">Ç</tspan><tspan x="401.04" y="0">A</tspan></text><text class="cls-13" transform="translate(240.93 261.69)">V<tspan class="cls-14" x="45.42" y="0">E</tspan><tspan class="cls-15" x="87.24" y="0">R</tspan><tspan class="cls-14" x="132.3" y="0">T </tspan><tspan class="cls-16" x="189.48" y="0">C</tspan><tspan class="cls-17" x="234.18" y="0">AL</tspan></text><polygon class="cls-3" points="418.35 42.84 384.16 83.59 388.47 87.2 418.35 51.58 418.35 348.18 423.97 348.18 423.97 42.84 418.35 42.84"/><rect class="cls-3" x="448.04" y="61.31" width="5.62" height="42.53" transform="translate(368.27 533.42) rotate(-90)"/><path class="cls-3" d="M450.84,52.69a9.45,9.45,0,1,0,9.45,9.44A9.44,9.44,0,0,0,450.84,52.69Zm0,13.28a3.84,3.84,0,1,1,3.84-3.84A3.83,3.83,0,0,1,450.84,66Z"/></g></svg>