<svg xmlns="http://www.w3.org/2000/svg" viewBox="0 0 834.34 480.89"><defs><style>.cls-1{fill:#fff;}.cls-2{opacity:0.9;}.cls-3{fill:#211915;}</style></defs><title>logo-festival-bg</title><g id="Camada_2" data-name="Camada 2"><g id="FESTIVAL"><polygon class="cls-1" points="489.81 176.2 489.81 85.64 395.4 85.64 395.4 0 240.65 0 164.67 94.75 41.32 94.75 41.32 207.95 71.56 207.95 71.56 236.03 0 236.03 0 439.28 232.24 439.28 232.24 480.89 334.89 480.89 334.89 438.18 495.73 438.18 495.73 343.43 584.57 343.43 584.57 292.65 834.34 288.96 834.34 176.2 489.81 176.2"/><g class="cls-2"><path class="cls-3" d="M44.46,379.26c0-14.63,11.16-25.29,26.21-25.29,7.63,0,14.27,2.61,18.79,7.7l-4.59,4.45A18.33,18.33,0,0,0,71,360.25c-11.16,0-19.42,8.06-19.42,19s8.26,19,19.42,19a18.4,18.4,0,0,0,13.92-5.94l4.59,4.45c-4.52,5.09-11.16,7.77-18.86,7.77C55.62,404.54,44.46,393.88,44.46,379.26Z"/><path class="cls-3" d="M133,391.62H106.7L101.26,404H94l22.39-49.45h7L145.83,404h-7.42ZM130.5,386l-10.66-24.23L109.17,386Z"/><path class="cls-3" d="M202.13,404l-.07-36-17.87,30h-3.25l-17.87-29.8V404h-6.78V354.53h5.79l20.63,34.76,20.34-34.76h5.79l.07,49.45Z"/><path class="cls-3" d="M266.77,371.77c0,10.73-7.77,17.23-20.62,17.23H233.93v15h-7.07V354.53h19.29C259,354.53,266.77,361,266.77,371.77Zm-7.06,0c0-7.06-4.74-11.09-13.78-11.09h-12v22.18h12C255,382.86,259.71,378.83,259.71,371.77Z"/><path class="cls-3" d="M345.61,354.53V404h-5.79l-29.67-36.87V404h-7.06V354.53h5.79l29.66,36.88V354.53Z"/><path class="cls-3" d="M395.06,391.62H368.78L363.35,404h-7.28l22.39-49.45h7L407.92,404H400.5ZM392.59,386l-10.67-24.23L371.26,386Z"/><path class="cls-3" d="M413.86,398.33l2.61-5.51c3.67,3.32,10,5.72,16.32,5.72,8.54,0,12.22-3.32,12.22-7.63,0-12.08-29.95-4.45-29.95-22.81C415.06,360.47,421,354,434,354c5.79,0,11.79,1.55,15.89,4.38L447.55,364A25.49,25.49,0,0,0,434,360c-8.41,0-12,3.53-12,7.84,0,12.08,29.95,4.52,29.95,22.68,0,7.55-6.08,14.05-19.14,14.05C425.23,404.54,417.81,402,413.86,398.33Z"/><polygon class="cls-3" points="280.52 37.19 280.52 37.22 234.98 91.5 240.72 96.31 280.52 48.87 280.52 444.17 288.01 444.17 288.01 37.19 280.52 37.19"/><path class="cls-3" d="M485.13,283.69h13.29c10.65,0,17.85,7,17.85,16.79s-7.2,16.8-17.85,16.8H485.13Zm13.1,31.38c9.5,0,15.6-6.05,15.6-14.59s-6.1-14.58-15.6-14.58H487.58v29.17Z"/><path class="cls-3" d="M550.05,315.07v2.21H526.88V283.69h22.45v2.21h-20v13.24h17.89v2.16H529.33v13.77Z"/><rect class="cls-3" x="320.09" y="61.04" width="7.49" height="56.69" transform="translate(234.44 413.22) rotate(-90)"/><path class="cls-3" d="M323.83,49.55a12.59,12.59,0,1,0,12.59,12.59A12.59,12.59,0,0,0,323.83,49.55Zm0,17.71A5.12,5.12,0,1,1,329,62.14,5.11,5.11,0,0,1,323.83,67.26Z"/><path class="cls-3" d="M113.8,210h13.29c10.66,0,17.85,7,17.85,16.79s-7.19,16.8-17.85,16.8H113.8Zm13.1,31.38c9.5,0,15.59-6,15.59-14.59s-6.09-14.58-15.59-14.58H116.25v29.17Z"/><path class="cls-3" d="M178.72,241.35v2.21H155.55V210H178v2.21H158v13.24h17.89v2.16H158v13.77Z"/><path class="cls-3" d="M91.41,137.18v17.23H116.2v6.08H91.41v20H84.35V131h34.89v6.15Z"/><path class="cls-3" d="M170,174.33v6.15H134.15V131h34.9v6.15H141.21v15.18H166v6h-24.8v16Z"/><path class="cls-3" d="M181.91,174.82l2.61-5.51c3.67,3.32,10,5.73,16.32,5.73,8.54,0,12.22-3.32,12.22-7.63,0-12.08-29.95-4.45-29.95-22.82,0-7.63,5.93-14.12,18.93-14.12,5.79,0,11.79,1.55,15.89,4.37l-2.33,5.66a25.49,25.49,0,0,0-13.56-4c-8.41,0-12,3.53-12,7.84C190,156.39,220,148.83,220,167c0,7.56-6.08,14.06-19.14,14.06C193.28,181,185.86,178.5,181.91,174.82Z"/><path class="cls-3" d="M244.35,137.18H227.4V131h40.9v6.15h-17v43.3h-7Z"/><path class="cls-3" d="M347.84,131l-21.68,49.45h-7L297.41,131H305l17.8,40.62L340.78,131Z"/><path class="cls-3" d="M389,168.11H362.75l-5.44,12.37H350L372.43,131h7l22.47,49.45h-7.42Zm-2.47-5.65-10.67-24.23-10.66,24.23Z"/><path class="cls-3" d="M414.18,131h7.06v43.3H448v6.15H414.18Z"/><polygon class="cls-3" points="220.74 282.9 238.65 282.9 238.65 328.32 251.61 328.32 251.61 282.9 269.52 282.9 269.52 272.34 220.74 272.34 220.74 282.9"/><path class="cls-3" d="M330.62,282.42A18,18,0,0,1,344.7,289L353,281.3c-5.27-6.4-13.35-9.92-23-9.92-17.43,0-30.39,12.08-30.39,28.95s13,28.95,30.31,28.95c9.76,0,17.84-3.52,23.11-10l-8.31-7.67a17.87,17.87,0,0,1-14.08,6.63c-10.47,0-17.91-7.35-17.91-17.91S320.15,282.42,330.62,282.42Z"/><polygon class="cls-3" points="438.83 272.34 425.87 272.34 425.87 328.32 466.9 328.32 466.9 317.76 438.83 317.76 438.83 272.34"/><path class="cls-3" d="M215.62,292.65c0-12.55-9.36-20.31-24.31-20.31H167.08v56H180v-15.6H192l10.8,15.6h13.91l-12.55-18C211.38,307.21,215.62,301.05,215.62,292.65Zm-25,9.76H180V282.9h10.56c7.92,0,11.92,3.59,11.92,9.75S198.51,302.41,190.59,302.41Z"/><path class="cls-3" d="M380.21,272.34l-24.95,56h13.27l5-12h26l5,12H418l-25-56Zm-2.56,34.15,8.87-21.43,8.88,21.43Z"/><path class="cls-3" d="M356.64,229.87c0-17-12.55-28-30.86-28H300.35v56h25.43C344.09,257.86,356.64,246.82,356.64,229.87ZM313.3,247.22v-34.7h11.84c11.11,0,18.39,6.63,18.39,17.35s-7.28,17.35-18.39,17.35Z"/><polygon class="cls-3" points="411.75 247.46 381.28 247.46 381.28 234.51 407.27 234.51 407.27 224.43 381.28 224.43 381.28 212.28 410.71 212.28 410.71 201.88 368.4 201.88 368.4 257.86 411.75 257.86 411.75 247.46"/><polygon class="cls-3" points="124.29 304.97 150.28 304.97 150.28 294.89 124.29 294.89 124.29 282.74 153.72 282.74 153.72 272.34 111.42 272.34 111.42 328.32 154.76 328.32 154.76 317.92 124.29 317.92 124.29 304.97"/><polygon class="cls-3" points="74.63 312.32 57.59 272.34 43.6 272.34 67.75 328.32 80.55 328.32 104.78 272.34 91.9 272.34 74.63 312.32"/><polygon class="cls-3" points="243.64 257.86 267.88 201.88 255 201.88 237.73 241.86 220.69 201.88 206.7 201.88 230.85 257.86 243.64 257.86"/><path class="cls-3" d="M718.05,212a18,18,0,0,1,14.07,6.55l8.32-7.67c-5.28-6.4-13.36-9.92-23-9.92C700,200.92,687,213,687,229.87c0,15.11,10.39,26.31,25,28.55l-1.76,7.28h2.72c2.8,0,3.92,1,3.92,2.31,0,1.52-1.2,2.56-4.16,2.56a12.13,12.13,0,0,1-5.2-1.2l-1.92,5.36a16,16,0,0,0,7.44,1.68c7.12,0,11.75-3,11.75-7.92,0-3.27-2.08-6.07-7-6.63l.72-3c9.19-.32,16.87-3.76,21.91-10l-8.32-7.68a17.84,17.84,0,0,1-14.07,6.64c-10.48,0-17.92-7.36-17.92-17.91S707.57,212,718.05,212Z"/><path class="cls-3" d="M518.83,201.88H493.4v56h25.43c18.32,0,30.87-11,30.87-28S537.15,201.88,518.83,201.88Zm-.64,45.34H506.36v-34.7h11.83c11.12,0,18.4,6.63,18.4,17.35S529.31,247.22,518.19,247.22Z"/><polygon class="cls-3" points="662.46 235.87 634.63 201.88 623.92 201.88 623.92 257.86 636.71 257.86 636.71 223.87 664.62 257.86 675.26 257.86 675.26 201.88 662.46 201.88 662.46 235.87"/><path class="cls-3" d="M578.25,201.88l-25,56h13.28l5-12h26l5,12h13.6l-25-56ZM575.69,236l8.88-21.44L593.45,236Z"/><path class="cls-3" d="M451,200.92c-17.67,0-30.63,12.31-30.63,29s13,28.95,30.63,28.95,30.63-12.24,30.63-28.95S468.61,200.92,451,200.92Zm0,46.86c-10,0-17.51-7.28-17.51-17.91S441,212,451,212s17.52,7.27,17.52,17.91S461,247.78,451,247.78Z"/><path class="cls-3" d="M780.43,201.88h-12.8l-25,56H756l4.95-12h26l5,12h13.6ZM765.07,236,774,214.59,782.83,236Z"/></g></g></g></svg>