<svg xmlns="http://www.w3.org/2000/svg" viewBox="0 0 350.82 120.04"><defs><style>.cls-1{fill:#623c80;stroke:#623c80;stroke-miterlimit:10;stroke-width:4.54px;}</style></defs><title>logo-teia</title><g id="Camada_2" data-name="Camada 2"><g id="GERAL"><path class="cls-1" d="M28,39.7h39.6a5.43,5.43,0,0,1,3.73,1,3.5,3.5,0,0,1,1.13,2.69A3.4,3.4,0,0,1,71.31,46a5.43,5.43,0,0,1-3.73,1H28V95.62a13.27,13.27,0,0,0,5.08,10.59q5.08,4.26,14.89,4.25a64.32,64.32,0,0,0,16-2.21,54.05,54.05,0,0,0,13.37-5,5.7,5.7,0,0,1,2.87-1.13,3.27,3.27,0,0,1,2.43,1.09,3.58,3.58,0,0,1,1,2.56,3.4,3.4,0,0,1-1.13,2.43q-2.78,2.87-13.5,6.21a69,69,0,0,1-20.54,3.34q-12.77,0-20.32-6T20.59,95.62V47.08H7.13A5.43,5.43,0,0,1,3.4,46a3.49,3.49,0,0,1-1.13-2.69A3.4,3.4,0,0,1,3.4,40.74a5.43,5.43,0,0,1,3.73-1H20.59V18.16a5.44,5.44,0,0,1,1-3.73,3.4,3.4,0,0,1,2.61-1.13,3.5,3.5,0,0,1,2.69,1.13,5.44,5.44,0,0,1,1,3.73Z"/><path class="cls-1" d="M170.3,79H96q1.91,14.16,11.85,22.8t24.62,8.64a59.34,59.34,0,0,0,17.11-2.69,44,44,0,0,0,14.59-7.12,4.94,4.94,0,0,1,2.87-1.3,3.27,3.27,0,0,1,2.43,1.09,3.58,3.58,0,0,1,1,2.56,4.07,4.07,0,0,1-1.39,2.87q-4.17,4.34-14.81,8.12a64.81,64.81,0,0,1-21.84,3.78q-18.76,0-31.31-12.29A40.09,40.09,0,0,1,88.58,75.74q0-15.89,11.77-27.27t29.14-11.38q17.89,0,29.44,11.68T170.3,79Zm-7.38-7.38A31.79,31.79,0,0,0,151.5,52a33.71,33.71,0,0,0-22-7.55,33.78,33.78,0,0,0-22,7.47A32,32,0,0,0,96.05,71.65Z"/><path class="cls-1" d="M222,39.7v67.91H250.7a5.77,5.77,0,0,1,3.82,1,3.62,3.62,0,0,1,0,5.25,5.59,5.59,0,0,1-3.82,1H186.09a5.43,5.43,0,0,1-3.73-1,3.62,3.62,0,0,1,0-5.25,5.6,5.6,0,0,1,3.73-1h28.66V47.08H193.47a5.61,5.61,0,0,1-3.78-1,3.34,3.34,0,0,1-1.17-2.61,3.5,3.5,0,0,1,1.13-2.69,5.58,5.58,0,0,1,3.82-1Zm-.26-37.43V21.11H211V2.27Z"/><path class="cls-1" d="M326.49,114.9V104.39q-15.89,13.37-34,13.37-13.11,0-20.49-6.64a21.07,21.07,0,0,1-7.38-16.28q0-10.59,9.73-18.5t28.4-7.9a100.39,100.39,0,0,1,10.94.65q5.9.65,12.76,2V59.32q0-6-5.56-10.42t-16.67-4.43q-8.51,0-23.88,4.95a16.62,16.62,0,0,1-3.56.87,3.19,3.19,0,0,1-2.39-1,3.62,3.62,0,0,1-1-2.61,3.16,3.16,0,0,1,.87-2.34q1.21-1.3,9.81-3.56,13.55-3.65,20.5-3.65,13.81,0,21.54,6.82t7.73,15.41v48.28h9.73a5.77,5.77,0,0,1,3.82,1,3.62,3.62,0,0,1,0,5.25,5.59,5.59,0,0,1-3.82,1Zm0-36.3a69.5,69.5,0,0,0-10.86-2.17,100.42,100.42,0,0,0-12.07-.69q-15.89,0-24.84,6.86Q272,87.72,272,94.84A14.19,14.19,0,0,0,277.12,106q5.16,4.52,15.07,4.52a41.18,41.18,0,0,0,17.59-3.78,63.34,63.34,0,0,0,16.72-12Z"/></g></g></svg>