<svg xmlns="http://www.w3.org/2000/svg" viewBox="0 0 439.96 111.04"><defs><style>.cls-1{fill:#444242;}</style></defs><title>logo-prg</title><g id="Camada_2" data-name="Camada 2"><g id="FOOTER"><path class="cls-1" d="M128.9,100.45H95.6V.4c22.11.88,44.62-3.08,66.82,3.53,9.89,2.94,16.32,9.53,17.62,20,1.32,10.66-2.18,19.48-11.52,25.45-2.15,1.37-4.46,2.5-7.39,4.12,20,9.16,19,30,28.88,47.47-12.5,0-23,.45-33.49-.3-2.83-.2-6.66-3.49-7.84-6.28-2.83-6.67-4.13-14-6.47-20.87-2-6-4.07-12.38-13.31-13.53ZM129,46.09c13.51-1.35,18.23-6,17.76-17-.45-10.65-5.23-14.76-17.76-14.87Z"/><path class="cls-1" d="M284.21,4.2l-1,11.53C260,10.09,243.07,17.81,236.34,36.6c-7.12,19.9.58,41.06,18.11,49.14.44-1.13,1.23-2.23,1.25-3.35.12-6.86.06-13.72.06-21l-8.81-3.19,1.38-10.61h39.4V101c-24.93,5.32-49.28,4-70.64-11.46-25.71-18.63-22.61-60.68,4.85-78.3C238,.91,260.69-3.45,284.21,4.2Z"/><path class="cls-1" d="M33.24,64.39v35.87H0V.61C21.19.75,42.52-2.22,63.46,3.82c11.93,3.44,18.87,14.1,19.34,27.65.42,12.15-5.26,21.62-17.4,25.67C55.75,60.36,45.49,61.71,33.24,64.39Zm.28-15.62c14-1.82,18.71-7.33,17.62-19.87-.93-10.73-5.74-14.7-17.62-14.34Z"/><g id="_90919680" data-name=" 90919680"><path id="_124851560" data-name=" 124851560" class="cls-1" d="M370.84,50.61V4.72A65.33,65.33,0,0,1,386.59,7,8.21,8.21,0,0,0,390,15.12l-15.2,36.34a19.21,19.21,0,0,0-4-.84Z"/><path id="_124851488" data-name=" 124851488" class="cls-1" d="M366.83,50.61V4.78A55.57,55.57,0,0,0,346,10l17,41.4a17.52,17.52,0,0,1,3.86-.8Z"/><path id="_124851416" data-name=" 124851416" class="cls-1" d="M359.9,52.56,343,11.39a60.62,60.62,0,0,0-17.26,13.24l30.43,30.43a20.2,20.2,0,0,1,3.74-2.49Z"/><path id="_124851344" data-name=" 124851344" class="cls-1" d="M323.62,27.11a53.1,53.1,0,0,0-10,18.06L351.48,61a18.57,18.57,0,0,1,2.41-3.62L323.62,27.11Z"/><path id="_124851272" data-name=" 124851272" class="cls-1" d="M350.16,64l-37.3-15.6a65.65,65.65,0,0,0,.49,20h35.93a20.17,20.17,0,0,1,.88-4.39Z"/><path id="_124851200" data-name=" 124851200" class="cls-1" d="M349.29,71.73h-35a77.48,77.48,0,0,0,8.19,15.63L350.13,76a20.25,20.25,0,0,1-.84-4.27Z"/><path id="_124851128" data-name=" 124851128" class="cls-1" d="M353.95,82.56a18.33,18.33,0,0,1-2.49-3.74l-26.7,10.95A72,72,0,0,0,337,99.51l17-17Z"/><path id="_124851056" data-name=" 124851056" class="cls-1" d="M375.17,107a8.23,8.23,0,0,1,3.76-8L374.7,88.61a19.58,19.58,0,0,1-18.46-3.76L339.9,101.19A56.07,56.07,0,0,0,375.17,107Z"/><path id="_124850984" data-name=" 124850984" class="cls-1" d="M377.55,87.43,381.8,98a8.19,8.19,0,0,1,8.31,3.76q2.73-1.29,5.39-2.7L381.39,84.9a18.93,18.93,0,0,1-3.84,2.53Z"/><path id="_124850912" data-name=" 124850912" class="cls-1" d="M428.34,75.85A8.28,8.28,0,0,1,426,71.54H388.25a19.6,19.6,0,0,1-4.55,11L398.5,97.37a155.46,155.46,0,0,0,29.84-21.53Z"/><path id="_124850840" data-name=" 124850840" class="cls-1" d="M407,18.88a62.2,62.2,0,0,1,5,5.64L381.36,55.16a20.26,20.26,0,0,0-3.62-2.41l15.2-36.34a8.18,8.18,0,0,0,7.68-2.55,56.24,56.24,0,0,1,6.39,5Z"/><ellipse id="_124850768" data-name=" 124850768" class="cls-1" cx="383.13" cy="106.1" rx="4.92" ry="4.94"/><circle id="_124850696" data-name=" 124850696" class="cls-1" cx="435.02" cy="69.28" r="4.94"/><circle id="_124850624" data-name=" 124850624" class="cls-1" cx="394.52" cy="8.42" r="4.94"/><path id="_124850024" data-name=" 124850024" class="cls-1" d="M423.47,45.85Q420.71,39.32,417.4,33q-1.69-3-3.55-5.82L383.64,57.43a20.43,20.43,0,0,1,2.47,3.74l37.36-15.32Z"/><path id="_124849952" data-name=" 124849952" class="cls-1" d="M424.77,48.88c1.82,4.72,3.47,9.52,4.9,14.38a8.23,8.23,0,0,0-3.62,5.19H388.27a19,19,0,0,0-.84-4.27l37.34-15.3Z"/></g></g></g></svg>