<svg xmlns="http://www.w3.org/2000/svg" viewBox="0 0 370.21 138.67"><title>SAE-logo_1</title><g id="Camada_2" data-name="Camada 2"><g id="art"><path d="M60.48,19.74a40.73,40.73,0,0,1,40.73,40.73H121a60.48,60.48,0,1,0-121,0H19.74A40.73,40.73,0,0,1,60.48,19.74Z"/><path d="M84.4,60.48c.05-.66.09-1.33.09-2a24,24,0,1,0-48,0c0,.67,0,1.34.09,2Z"/><path d="M200.73,60.48a22.19,22.19,0,0,1-44.35,0H150a28.59,28.59,0,0,0,57.16,0Z"/><path d="M224.23,60.48a45.69,45.69,0,0,1-91.36,0H122.62a55.93,55.93,0,0,0,111.85,0Z"/></g><g id="SAE"><path d="M306.67,27.61,321.4,61H310.88l-2.49-4.54H292.63l-2.4,4.68h-10.6l14.78-33.52Zm-6.07,8.82L295.28,49.6H305.9Z"/><path d="M353.31,48.38H338.59v8h16.06l.28,4.67H328V27.71h26.09v6.51H338.74V41.4h14.57Z"/><path d="M273.25,29.79v7.49c-4.36-1.36-8.42-4.75-13.11-2a2,2,0,0,0-.26,3.25,20.36,20.36,0,0,0,2.58,2c2.55,1.55,5.4,2.65,7.84,4.35,6.35,4.41,6.57,10.88.81,16.24H248.58V53.46c10.78,3.31,12.49,3.83,14.85,1.35a2,2,0,0,0-.31-3c-1.21-.85-2.39-1.69-3.64-2.43-2.28-1.35-4.8-2.32-7-3.8-3.67-2.51-4.87-6.24-4-10.52.77-4,3.54-6.32,7.3-7.42C261.8,25.86,267.55,26.86,273.25,29.79Z"/></g><g id="curves"><path d="M253.74,73.41a7.94,7.94,0,0,1,2,.24,10,10,0,0,1,2,.76V77.1a9.47,9.47,0,0,0-2.05-1,6.09,6.09,0,0,0-2-.38,2,2,0,0,0-1.13.27.88.88,0,0,0-.41.78.79.79,0,0,0,.34.57,12.77,12.77,0,0,0,1.87,1.05,11.48,11.48,0,0,1,3.07,2,3.16,3.16,0,0,1,.88,2.25A3.56,3.56,0,0,1,257,85.61a5.3,5.3,0,0,1-3.47,1.06,10.34,10.34,0,0,1-2.55-.3,8.55,8.55,0,0,1-2-.72v-2.8a9,9,0,0,0,4.14,1.37,2.77,2.77,0,0,0,1.39-.31.92.92,0,0,0,.53-.81.87.87,0,0,0-.19-.55,2.51,2.51,0,0,0-.57-.51q-.38-.26-2.39-1.24a6.82,6.82,0,0,1-2.28-1.61,3.07,3.07,0,0,1-.74-2.06,3.23,3.23,0,0,1,1.33-2.71A5.59,5.59,0,0,1,253.74,73.41Z"/><path d="M266.48,73.41a5.72,5.72,0,0,1,4.46,1.8,7.14,7.14,0,0,1,1.64,5v.51h-9a3.93,3.93,0,0,0,1.28,2.63,4.37,4.37,0,0,0,2.95.92,6.55,6.55,0,0,0,2.32-.42,10.13,10.13,0,0,0,2.3-1.26v2.5a9.18,9.18,0,0,1-5.44,1.59A6.87,6.87,0,0,1,262,84.86,6.36,6.36,0,0,1,260.09,80a6.59,6.59,0,0,1,1.77-4.76A6.11,6.11,0,0,1,266.48,73.41Zm2.94,5.26a3.7,3.7,0,0,0-.85-2.18,2.5,2.5,0,0,0-2-.79,2.81,2.81,0,0,0-2,.75,3.71,3.71,0,0,0-1,2.21Z"/><path d="M282.38,73.41a3.12,3.12,0,0,1,1.32.3,7.36,7.36,0,0,1,1.51,1L284,77.66a4.42,4.42,0,0,0-2.35-1.09,2.51,2.51,0,0,0-1.54.58,4.16,4.16,0,0,0-1.22,1.54,4.4,4.4,0,0,0-.46,1.91v5.82h-3.36V73.66h3.36v3.25h.05a8.86,8.86,0,0,1,1.85-2.67A3,3,0,0,1,282.38,73.41Z"/><path d="M288.62,73.66l3.06,7.4,3-7.4h3.58l-5.77,13h-1.63l-5.85-13Z"/><path d="M301.65,67.75a1.91,1.91,0,0,1,1.9,1.9A1.88,1.88,0,0,1,303,71a1.84,1.84,0,0,1-2.68,0,1.86,1.86,0,0,1-.57-1.33,1.8,1.8,0,0,1,.57-1.35A1.85,1.85,0,0,1,301.65,67.75Zm1.68,5.91V86.43H300V73.66Z"/><path d="M312.79,73.41a9.25,9.25,0,0,1,4,.86v2.86a6.8,6.8,0,0,0-3.39-1,3.72,3.72,0,0,0-3.91,4A3.91,3.91,0,0,0,310.61,83,4,4,0,0,0,313.55,84a9.49,9.49,0,0,0,3.5-.9v2.72a11.5,11.5,0,0,1-4.37.81l-.16.4q1.65.52,1.65,1.9a2.25,2.25,0,0,1-.79,1.8,3.68,3.68,0,0,1-2.43.68,7.32,7.32,0,0,1-1.56-.21V89.76l.59.05q1.64,0,1.64-.85a.64.64,0,0,0-.3-.53,1.65,1.65,0,0,0-1-.22h-.11l.83-1.74a6.21,6.21,0,0,1-3.71-2.17A6.35,6.35,0,0,1,306,80.18a6.57,6.57,0,0,1,1.89-4.91A6.7,6.7,0,0,1,312.79,73.41Z"/><path d="M325.76,73.41a7.83,7.83,0,0,1,3.62.83,6.06,6.06,0,0,1,2.52,2.34,6.56,6.56,0,0,1,.89,3.4,6.86,6.86,0,0,1-.85,3.47,6,6,0,0,1-2.52,2.35,7.82,7.82,0,0,1-3.66.86,7.73,7.73,0,0,1-3.65-.86,6,6,0,0,1-2.5-2.35,6.86,6.86,0,0,1-.85-3.47,6.5,6.5,0,0,1,.9-3.42,6.14,6.14,0,0,1,2.52-2.32A7.73,7.73,0,0,1,325.76,73.41ZM322.29,80a4.67,4.67,0,0,0,.94,3.06,3.08,3.08,0,0,0,2.51,1.14,3.23,3.23,0,0,0,2.58-1.09,4.66,4.66,0,0,0,.94-3.13,4.34,4.34,0,0,0-1-3,3.29,3.29,0,0,0-2.58-1.06A3.12,3.12,0,0,0,323.24,77,4.41,4.41,0,0,0,322.29,80Z"/><path d="M351.6,73.95V67.33H355v19.1H349a6.78,6.78,0,0,1-4.9-1.76,6.36,6.36,0,0,1-1.84-4.81,6.44,6.44,0,0,1,.85-3.28,6.14,6.14,0,0,1,2.35-2.32,6.5,6.5,0,0,1,3.23-.84A8.64,8.64,0,0,1,351.6,73.95Zm-1.76,9.91h1.76v-7.4a4.67,4.67,0,0,0-2.16-.53A3.54,3.54,0,0,0,346.76,77a3.83,3.83,0,0,0-1,2.76Q345.75,83.86,349.84,83.86Z"/><path d="M364.12,73.41a5.72,5.72,0,0,1,4.46,1.8,7.14,7.14,0,0,1,1.64,5v.51h-9a3.93,3.93,0,0,0,1.28,2.63,4.37,4.37,0,0,0,2.95.92,6.55,6.55,0,0,0,2.32-.42,10.13,10.13,0,0,0,2.3-1.26v2.5a9.18,9.18,0,0,1-5.44,1.59,6.87,6.87,0,0,1-4.94-1.82A6.36,6.36,0,0,1,357.73,80a6.59,6.59,0,0,1,1.77-4.76A6.11,6.11,0,0,1,364.12,73.41Zm2.94,5.26a3.7,3.7,0,0,0-.85-2.18,2.5,2.5,0,0,0-2-.79,2.81,2.81,0,0,0-2,.75,3.71,3.71,0,0,0-1,2.21Z"/><path d="M254.19,99.41a5.88,5.88,0,0,1,3.76,1,3.54,3.54,0,0,1,1.3,2.92v6.25q0,.73.59.72a1.76,1.76,0,0,0,.69-.21,3.05,3.05,0,0,0,.75-.49v1.94a6.3,6.3,0,0,1-3.23,1.08,2.65,2.65,0,0,1-1.39-.3,1.65,1.65,0,0,1-.68-1.07,6.66,6.66,0,0,1-3.87,1.37,3.35,3.35,0,0,1-2.37-.93,3,3,0,0,1-1-2.23,3.47,3.47,0,0,1,1-2.61,8.37,8.37,0,0,1,3.45-1.67l2.72-.79v-.59q0-1.87-2.27-1.87a5.44,5.44,0,0,0-2.31.53,6.56,6.56,0,0,0-2.09,1.57v-3A7.76,7.76,0,0,1,254.19,99.41Zm-2.05,9.6a1.48,1.48,0,0,0,.44,1.12,1.53,1.53,0,0,0,1.1.42,3.31,3.31,0,0,0,2.21-1v-3.36a15.73,15.73,0,0,0-2.21.9,4,4,0,0,0-1.18.86A1.58,1.58,0,0,0,252.14,109Z"/><path d="M269.56,99.41a5.69,5.69,0,0,1,4.41,1.83,6.8,6.8,0,0,1,1.67,4.77,7.38,7.38,0,0,1-.79,3.45,5.74,5.74,0,0,1-2.24,2.37,6.37,6.37,0,0,1-3.28.85,6.65,6.65,0,0,1-3-.75v6.95H263V99.66h3.34v.82A5.53,5.53,0,0,1,269.56,99.41Zm-3.21,10a4.75,4.75,0,0,0,2.35.72,3.16,3.16,0,0,0,2.54-1.13,4.38,4.38,0,0,0,1-2.93,4.9,4.9,0,0,0-.85-3.06,2.89,2.89,0,0,0-2.43-1.11,3.31,3.31,0,0,0-1.13.2,6.43,6.43,0,0,0-1.44.84Z"/><path d="M284.51,99.41a7.83,7.83,0,0,1,3.62.83,6.06,6.06,0,0,1,2.52,2.34,6.56,6.56,0,0,1,.89,3.4,6.86,6.86,0,0,1-.85,3.47,6,6,0,0,1-2.52,2.35,7.82,7.82,0,0,1-3.66.86,7.73,7.73,0,0,1-3.65-.86,6,6,0,0,1-2.5-2.35,6.86,6.86,0,0,1-.85-3.47,6.5,6.5,0,0,1,.9-3.42,6.14,6.14,0,0,1,2.52-2.32A7.73,7.73,0,0,1,284.51,99.41ZM281,106A4.67,4.67,0,0,0,282,109a3.08,3.08,0,0,0,2.51,1.14,3.23,3.23,0,0,0,2.58-1.09A4.66,4.66,0,0,0,288,106a4.34,4.34,0,0,0-1-3,3.29,3.29,0,0,0-2.58-1.06A3.12,3.12,0,0,0,282,103,4.41,4.41,0,0,0,281,106Z"/><path d="M295.88,93.75a1.91,1.91,0,0,1,1.9,1.9,1.88,1.88,0,0,1-.55,1.33,1.84,1.84,0,0,1-2.68,0,1.86,1.86,0,0,1-.57-1.33,1.8,1.8,0,0,1,.57-1.35A1.85,1.85,0,0,1,295.88,93.75Zm1.68,5.91v12.77H294.2V99.66Z"/><path d="M307.23,99.41a7.83,7.83,0,0,1,3.62.83,6.06,6.06,0,0,1,2.52,2.34,6.56,6.56,0,0,1,.89,3.4,6.86,6.86,0,0,1-.85,3.47,6,6,0,0,1-2.52,2.35,7.82,7.82,0,0,1-3.66.86,7.73,7.73,0,0,1-3.65-.86,6,6,0,0,1-2.5-2.35,6.86,6.86,0,0,1-.85-3.47,6.5,6.5,0,0,1,.9-3.42,6.14,6.14,0,0,1,2.52-2.32A7.73,7.73,0,0,1,307.23,99.41ZM303.75,106a4.67,4.67,0,0,0,.94,3.06,3.08,3.08,0,0,0,2.51,1.14,3.23,3.23,0,0,0,2.58-1.09,4.66,4.66,0,0,0,.94-3.13,4.34,4.34,0,0,0-1-3,3.29,3.29,0,0,0-2.58-1.06,3.12,3.12,0,0,0-2.49,1.12A4.41,4.41,0,0,0,303.75,106Z"/><path d="M329,99.41a5.88,5.88,0,0,1,3.76,1,3.54,3.54,0,0,1,1.3,2.92v6.25q0,.73.59.72a1.76,1.76,0,0,0,.69-.21,3.05,3.05,0,0,0,.75-.49v1.94a6.3,6.3,0,0,1-3.23,1.08,2.65,2.65,0,0,1-1.39-.3,1.65,1.65,0,0,1-.68-1.07,6.66,6.66,0,0,1-3.87,1.37,3.35,3.35,0,0,1-2.37-.93,3,3,0,0,1-1-2.23,3.47,3.47,0,0,1,1-2.61,8.37,8.37,0,0,1,3.45-1.67l2.72-.79v-.59q0-1.87-2.27-1.87a5.44,5.44,0,0,0-2.31.53,6.56,6.56,0,0,0-2.09,1.57v-3A7.76,7.76,0,0,1,329,99.41ZM327,109a1.48,1.48,0,0,0,.44,1.12,1.53,1.53,0,0,0,1.1.42,3.31,3.31,0,0,0,2.21-1v-3.36a15.73,15.73,0,0,0-2.21.9,4,4,0,0,0-1.18.86A1.58,1.58,0,0,0,327,109Z"/><path d="M344.16,99.41a7.83,7.83,0,0,1,3.62.83,6.06,6.06,0,0,1,2.52,2.34,6.56,6.56,0,0,1,.89,3.4,6.86,6.86,0,0,1-.85,3.47,6,6,0,0,1-2.52,2.35,7.82,7.82,0,0,1-3.66.86,7.73,7.73,0,0,1-3.65-.86,6,6,0,0,1-2.5-2.35,6.86,6.86,0,0,1-.85-3.47,6.5,6.5,0,0,1,.9-3.42,6.14,6.14,0,0,1,2.52-2.32A7.73,7.73,0,0,1,344.16,99.41ZM340.68,106a4.67,4.67,0,0,0,.94,3.06,3.08,3.08,0,0,0,2.51,1.14,3.23,3.23,0,0,0,2.58-1.09,4.66,4.66,0,0,0,.94-3.13,4.34,4.34,0,0,0-1-3,3.29,3.29,0,0,0-2.58-1.06,3.12,3.12,0,0,0-2.49,1.12A4.41,4.41,0,0,0,340.68,106Z"/><path d="M255.31,125.41a5.72,5.72,0,0,1,4.46,1.8,7.14,7.14,0,0,1,1.64,5v.51h-9a3.93,3.93,0,0,0,1.28,2.63,4.37,4.37,0,0,0,2.95.92,6.55,6.55,0,0,0,2.32-.42,10.13,10.13,0,0,0,2.3-1.26v2.5a9.18,9.18,0,0,1-5.44,1.59,6.87,6.87,0,0,1-4.94-1.82,6.36,6.36,0,0,1-1.91-4.84,6.59,6.59,0,0,1,1.77-4.76A6.11,6.11,0,0,1,255.31,125.41Zm2.94,5.26a3.7,3.7,0,0,0-.85-2.18,2.5,2.5,0,0,0-2-.79,2.81,2.81,0,0,0-2,.75,3.71,3.71,0,0,0-1,2.21Z"/><path d="M268.05,125.41a7.94,7.94,0,0,1,2,.24,10,10,0,0,1,2,.76v2.69a9.47,9.47,0,0,0-2.05-1,6.09,6.09,0,0,0-2-.38,2,2,0,0,0-1.13.27.88.88,0,0,0-.41.78.79.79,0,0,0,.34.57,12.77,12.77,0,0,0,1.87,1.05,11.48,11.48,0,0,1,3.07,2,3.16,3.16,0,0,1,.88,2.25,3.56,3.56,0,0,1-1.29,2.91,5.3,5.3,0,0,1-3.47,1.06,10.34,10.34,0,0,1-2.55-.3,8.55,8.55,0,0,1-2-.72v-2.8a9,9,0,0,0,4.14,1.37,2.77,2.77,0,0,0,1.39-.31.92.92,0,0,0,.53-.81.87.87,0,0,0-.19-.55,2.51,2.51,0,0,0-.57-.51q-.38-.26-2.39-1.24a6.82,6.82,0,0,1-2.28-1.61,3.07,3.07,0,0,1-.74-2.06,3.23,3.23,0,0,1,1.33-2.71A5.59,5.59,0,0,1,268.05,125.41Z"/><path d="M278.58,122.27h.27v3.39h4.38v2.54h-4.37v5.89a1.81,1.81,0,0,0,1.94,1.93,5.75,5.75,0,0,0,2.71-.85v2.69a8.45,8.45,0,0,1-3.42.81,4.63,4.63,0,0,1-3.37-1.18,4.24,4.24,0,0,1-1.21-3.19V128.2h-2v-.55Z"/><path d="M288.51,125.66v7.9a2.63,2.63,0,0,0,.62,1.89,2.18,2.18,0,0,0,1.65.65,2.89,2.89,0,0,0,1.63-.52,3.75,3.75,0,0,0,1.26-1.46v-8.46H297v12.77h-3.36v-1.74a5.31,5.31,0,0,1-3.94,2,4.33,4.33,0,0,1-3.31-1.34,4.91,4.91,0,0,1-1.26-3.5v-8.18Z"/><path d="M308.88,125.95v-6.62h3.35v19.1h-5.91a6.78,6.78,0,0,1-4.9-1.76,6.36,6.36,0,0,1-1.84-4.81,6.44,6.44,0,0,1,.85-3.28,6.14,6.14,0,0,1,2.35-2.32,6.5,6.5,0,0,1,3.23-.84A8.64,8.64,0,0,1,308.88,125.95Zm-1.76,9.91h1.76v-7.4a4.67,4.67,0,0,0-2.16-.53A3.54,3.54,0,0,0,304,129a3.83,3.83,0,0,0-1,2.76Q303,135.86,307.12,135.86Z"/><path d="M320,125.41a5.88,5.88,0,0,1,3.76,1,3.54,3.54,0,0,1,1.3,2.92v6.25q0,.73.59.72a1.76,1.76,0,0,0,.69-.21,3.05,3.05,0,0,0,.75-.49v1.94a6.3,6.3,0,0,1-3.23,1.08,2.65,2.65,0,0,1-1.39-.3,1.65,1.65,0,0,1-.68-1.07,6.66,6.66,0,0,1-3.87,1.37,3.35,3.35,0,0,1-2.37-.93,3,3,0,0,1-1-2.23,3.47,3.47,0,0,1,1-2.61,8.37,8.37,0,0,1,3.45-1.67l2.72-.79v-.59q0-1.87-2.27-1.87a5.44,5.44,0,0,0-2.31.53,6.56,6.56,0,0,0-2.09,1.57v-3A7.76,7.76,0,0,1,320,125.41ZM318,135a1.48,1.48,0,0,0,.44,1.12,1.53,1.53,0,0,0,1.1.42,3.31,3.31,0,0,0,2.21-1v-3.36a15.73,15.73,0,0,0-2.21.9,4,4,0,0,0-1.18.86A1.58,1.58,0,0,0,318,135Z"/><path d="M336.23,125.41a4.21,4.21,0,0,1,3.27,1.35,5.07,5.07,0,0,1,1.22,3.55v8.12h-3.35v-7.78a3,3,0,0,0-.59-2,2,2,0,0,0-1.62-.72,2.58,2.58,0,0,0-1.46.46,6.89,6.89,0,0,0-1.5,1.52v8.49h-3.36V125.66h3.36v1.79a6,6,0,0,1,1.91-1.57A4.83,4.83,0,0,1,336.23,125.41Z"/><path d="M347.34,122.27h.27v3.39H352v2.54h-4.37v5.89a1.81,1.81,0,0,0,1.94,1.93,5.75,5.75,0,0,0,2.71-.85v2.69a8.45,8.45,0,0,1-3.42.81,4.63,4.63,0,0,1-3.37-1.18,4.24,4.24,0,0,1-1.21-3.19V128.2h-2v-.55Z"/><path d="M359.75,125.41a5.72,5.72,0,0,1,4.46,1.8,7.14,7.14,0,0,1,1.64,5v.51h-9a3.93,3.93,0,0,0,1.28,2.63,4.37,4.37,0,0,0,2.95.92,6.55,6.55,0,0,0,2.32-.42,10.13,10.13,0,0,0,2.3-1.26v2.5a9.18,9.18,0,0,1-5.44,1.59,6.87,6.87,0,0,1-4.94-1.82,6.36,6.36,0,0,1-1.91-4.84,6.59,6.59,0,0,1,1.77-4.76A6.11,6.11,0,0,1,359.75,125.41Zm2.94,5.26a3.7,3.7,0,0,0-.85-2.18,2.5,2.5,0,0,0-2-.79,2.81,2.81,0,0,0-2,.75,3.71,3.71,0,0,0-1,2.21Z"/></g></g></svg>