<svg xmlns="http://www.w3.org/2000/svg" viewBox="0 0 237.31 266.27"><defs><style>.cls-1{fill:#444242;}</style></defs><title>logo-unicamp</title><g id="Camada_2" data-name="Camada 2"><g id="FOOTER"><g id="_90919680" data-name=" 90919680"><path id="_124851560" data-name=" 124851560" class="cls-1" d="M108.8,87.64V2.31a121.46,121.46,0,0,1,29.28,4.25,15.26,15.26,0,0,0,6.38,15.08L116.21,89.2a35.72,35.72,0,0,0-7.41-1.56Z"/><path id="_124851488" data-name=" 124851488" class="cls-1" d="M101.35,87.64V2.43a103.32,103.32,0,0,0-38.77,9.72l31.59,77a32.58,32.58,0,0,1,7.18-1.48Z"/><path id="_124851416" data-name=" 124851416" class="cls-1" d="M88.47,91.26,57,14.71A112.7,112.7,0,0,0,24.94,39.32L81.52,95.9a37.55,37.55,0,0,1,6.95-4.63Z"/><path id="_124851344" data-name=" 124851344" class="cls-1" d="M21,43.95A98.72,98.72,0,0,0,2.49,77.52l70.33,29.43a34.52,34.52,0,0,1,4.48-6.72L21,43.95Z"/><path id="_124851272" data-name=" 124851272" class="cls-1" d="M70.35,112.61,1,83.59a122,122,0,0,0,.91,37.18h66.8a37.5,37.5,0,0,1,1.63-8.16Z"/><path id="_124851200" data-name=" 124851200" class="cls-1" d="M68.74,126.9H3.65A144,144,0,0,0,18.88,156l51.42-21.11a37.66,37.66,0,0,1-1.56-7.94Z"/><path id="_124851128" data-name=" 124851128" class="cls-1" d="M77.39,147a34.08,34.08,0,0,1-4.63-6.95L23.13,160.44a133.88,133.88,0,0,0,22.75,18.11L77.39,147Z"/><path id="_124851056" data-name=" 124851056" class="cls-1" d="M116.86,192.54a15.29,15.29,0,0,1,7-14.81L116,158.29a36.41,36.41,0,0,1-34.33-7L51.27,181.68a104.24,104.24,0,0,0,65.58,10.86Z"/><path id="_124850984" data-name=" 124850984" class="cls-1" d="M121.29,156.1l7.9,19.59a15.22,15.22,0,0,1,15.46,7q5.07-2.39,10-5l-26.24-26.28a35.19,35.19,0,0,1-7.14,4.71Z"/><path id="_124850912" data-name=" 124850912" class="cls-1" d="M215.71,134.55a15.4,15.4,0,0,1-4.33-8H141.17A36.44,36.44,0,0,1,132.7,147l27.53,27.53a289,289,0,0,0,55.48-40Z"/><path id="_124850840" data-name=" 124850840" class="cls-1" d="M176,28.65a115.64,115.64,0,0,1,9.27,10.48l-57,57a37.67,37.67,0,0,0-6.72-4.48l28.25-67.56a15.21,15.21,0,0,0,14.28-4.75A104.57,104.57,0,0,1,176,28.65Z"/><ellipse id="_124850768" data-name=" 124850768" class="cls-1" cx="131.65" cy="190.8" rx="9.15" ry="9.19"/><circle id="_124850696" data-name=" 124850696" class="cls-1" cx="228.12" cy="122.34" r="9.19"/><circle id="_124850624" data-name=" 124850624" class="cls-1" cx="152.82" cy="9.19" r="9.19"/><polygon id="_124850528" data-name=" 124850528" class="cls-1" points="38.33 266.23 38.33 242.12 48.66 242.12 62.71 258.75 62.71 242.27 69.93 242.27 69.93 266.23 58.91 266.23 45.4 250.43 45.4 266.23 38.33 266.23"/><polygon id="_124850456" data-name=" 124850456" class="cls-1" points="75.98 266.23 75.98 241.93 82.74 241.93 82.74 266.23 75.98 266.23"/><path id="_124850384" data-name=" 124850384" class="cls-1" d="M109.81,257.37h6.72v3.23a5.65,5.65,0,0,1-6.23,5.62h-14a6.79,6.79,0,0,1-6.76-6.08V248a6.13,6.13,0,0,1,6.76-6.08h14a6.3,6.3,0,0,1,6.27,5.62v3.27h-6.76a2.88,2.88,0,0,0-3-2.81H99.71a3.22,3.22,0,0,0-3.38,3v6.08a3.2,3.2,0,0,0,3.38,3h7.06a2.89,2.89,0,0,0,3-2.77Z"/><path class="cls-1" d="M142.31,242.23H131.25l-9.95,24h7.19l1.66-3.87h13.54l1.11,3.87h7.74Zm-1.38,14.37h-8.29l4.15-10.23,4.15,10.23Z"/><polygon id="_124850240" data-name=" 124850240" class="cls-1" points="164.98 252.34 164.98 266.12 158.22 266.12 158.22 241.82 166 241.82 178.19 260.77 189.55 241.82 197.22 241.82 197.22 266.12 190.46 266.12 190.46 253.1 182.63 266.12 173.82 266.12 164.98 252.34"/><path class="cls-1" d="M224.71,241.63H203.43v24.6h7.19V260.7h14.1a6.62,6.62,0,0,0,6.36-6.36v-6.63C230.52,244.39,228,241.63,224.71,241.63Zm-3.32,12.44H210.62V248H221.4A3,3,0,1,1,221.4,254.07Z"/><path id="_124850096" data-name=" 124850096" class="cls-1" d="M8.74,257V241.78H2v18.49a5.81,5.81,0,0,0,5.81,5.81H26.74a5.79,5.79,0,0,0,5.81-5.81V242H25.79v15a3,3,0,0,1-3,3h-11a3,3,0,0,1-3-3Z"/><path id="_124850024" data-name=" 124850024" class="cls-1" d="M206.65,78.78Q201.53,66.65,195.38,55q-3.13-5.53-6.61-10.82L132.6,100.31a38,38,0,0,1,4.59,6.95l69.46-28.48Z"/><path id="_124849952" data-name=" 124849952" class="cls-1" d="M209.07,84.42c3.38,8.77,6.46,17.7,9.11,26.73a15.31,15.31,0,0,0-6.72,9.65H141.21a35.38,35.38,0,0,0-1.56-7.94l69.42-28.44Z"/></g></g></g></svg>